<?xml version="1.0" standalone="no"?><!DOCTYPE svg PUBLIC "-//W3C//DTD SVG 1.1//EN" "http://www.w3.org/Graphics/SVG/1.1/DTD/svg11.dtd"><svg t="1763112293602" class="icon" viewBox="0 0 1024 1024" version="1.1" xmlns="http://www.w3.org/2000/svg" p-id="9507" xmlns:xlink="http://www.w3.org/1999/xlink" width="200" height="200"><path d="M0 512c0 282.624 229.376 512 512 512s512-229.376 512-512S794.624 0 512 0 0 229.376 0 512z" fill="#FFFFFF" p-id="9508"></path><path d="M364.544 589.312c0 90.624 73.216 163.84 163.84 163.84s163.84-73.216 163.84-163.84-73.216-163.84-163.84-163.84-163.84 73.216-163.84 163.84z" fill="#FFFFFF" p-id="9509"></path><path d="M822.272 422.4c0 7.68-6.144 13.824-13.824 13.824-7.68 0-13.824-6.144-13.824-13.824 0-113.664-92.16-205.824-205.824-205.824H435.2c-113.664 0-205.824 92.16-205.824 205.824 0 7.68-6.144 13.824-13.824 13.824s-13.824-6.144-13.824-13.824c0-128.512 104.96-233.472 233.472-233.472h153.6c129.024 0 233.472 104.96 233.472 233.472z" fill="#1A1D2D" p-id="9510"></path><path d="M863.744 392.192v54.784c0 22.528-18.432 40.96-40.96 40.96h-16.384c0 6.656-6.144 12.288-13.824 12.288-7.68 0-13.824-5.632-13.824-12.288h-24.576c-7.68 0-13.824-6.144-13.824-13.824V364.544c0-7.68 6.144-13.824 13.824-13.824h20.48l-4.608-12.288c-4.096-10.752 1.536-22.528 12.288-26.624 10.752-4.096 22.528 1.536 26.624 12.288l9.728 26.624h4.608c22.016 0 40.448 18.432 40.448 41.472zM270.336 350.72h-20.48l4.608-12.288c4.096-10.752-1.536-22.528-12.288-26.624-10.752-4.096-22.528 1.536-26.624 12.288l-9.728 26.624h-4.608c-22.528 0-40.96 18.432-40.96 40.96v54.784c0 22.528 18.432 40.96 40.96 40.96h68.608c7.68 0 13.824-6.144 13.824-13.824V364.544c0.512-7.68-5.632-13.824-13.312-13.824z" fill="#FF6845" p-id="9511"></path><path d="M588.8 641.024H435.2c-74.752 0-139.776 42.496-171.52 104.96 61.44 67.072 150.016 109.568 248.32 109.568s186.88-41.984 248.32-109.568a192.1536 192.1536 0 0 0-171.52-104.96zM441.856 620.032h140.288c105.984 0 192-86.016 192-192S688.128 235.52 582.144 235.52H441.856c-105.984 0-192 86.016-192 192s86.016 192.512 192 192.512z" fill="#298AFF" p-id="9512"></path><path d="M325.12 407.04c0-53.248 43.008-96.256 96.256-96.256h181.248c53.248 0 96.256 43.008 96.256 96.256v40.96c0 53.248-43.008 96.256-96.256 96.256H421.376c-53.248 0-96.256-43.008-96.256-96.256v-40.96z" fill="#1A1D2D" p-id="9513"></path><path d="M805.888 486.4v58.88c0 30.208-24.576 54.784-54.784 54.784h-233.472v-27.648h233.472c15.36 0 27.648-12.288 27.648-27.648V486.4h27.136z" fill="#1A1D2D" p-id="9514"></path><path d="M557.056 605.696H466.944c-12.8 0-23.552-10.24-23.552-23.552 0-12.8 10.24-23.552 23.552-23.552h90.624c12.8 0 23.552 10.24 23.552 23.552-0.512 12.8-10.752 23.552-24.064 23.552z" fill="#FF6845" p-id="9515"></path><path d="M534.528 772.608v29.696c0 10.752-8.704 19.968-18.944 20.992-12.288 1.024-22.016-8.704-22.016-20.48V773.12c0-10.752 8.704-19.968 18.944-20.992 11.776-1.024 22.016 8.704 22.016 20.48z" fill="#1A1D2D" p-id="9516"></path><path d="M496.036533 728.2416a24.576 24.576 0 1 0 34.755106-34.756319 24.576 24.576 0 1 0-34.755106 34.756319Z" fill="#1A1D2D" p-id="9517"></path><path d="M445.952 472.064h-12.8c-10.24 0-18.432-8.192-18.432-18.432V401.408c0-10.24 8.192-18.432 18.432-18.432h12.8c10.24 0 18.432 8.192 18.432 18.432v51.712c0 10.24-8.192 18.944-18.432 18.944zM592.384 472.064h-12.8c-10.24 0-18.432-8.192-18.432-18.432V401.408c0-10.24 8.192-18.432 18.432-18.432h12.8c10.24 0 18.432 8.192 18.432 18.432v51.712c0 10.24-8.192 18.944-18.432 18.944z" fill="#FEFEFE" p-id="9518"></path></svg>